<svg xmlns="http://www.w3.org/2000/svg" viewBox="0 0 473.34 283.17"><defs><style>.cls-1{fill:none;stroke:#000;stroke-miterlimit:10;}</style></defs><title>step_road_02_1</title><g id="圖層_2" data-name="圖層 2"><g id="圖層_1-2" data-name="圖層 1"><path class="cls-1" d="M324,1s36.54-3.48,71.34,8.7,51,26.1,65.54,47.56,16.82,58.59,1.16,91.07-21.46,37.12-36.54,49.3c0,0-13.69,7.36-21.16,14.2s-8.09,14-8.09,19.92,8.09,22.72,26.45,22.72,28.32-18.05,26.77-28.32S431.13,194.05,400,184.4s-35.25-8.25-55.48-8.25-65.64,7-89.18,21.88-27.66,20.64-33.44,27.66-16.1,28.08-33,41.7-27.25,15.28-41.7,15.28a91.73,91.73,0,0,1-40-8.67c-12-5.78-37.57-30.14-64.41-45.42S.2,220.32.2,220.32"/></g></g></svg>