<svg xmlns="http://www.w3.org/2000/svg" viewBox="0 0 455.46 359.81"><defs><style>.cls-1{fill:none;stroke:#000;stroke-miterlimit:10;}</style></defs><title>step_road_01</title><g id="圖層_2" data-name="圖層 2"><g id="圖層_2-2" data-name="圖層 2"><path class="cls-1" d="M131.5.51H65.87S62.68,0,57.8,4.89s-4.38,8.41-4.38,8.41v65A11.25,11.25,0,0,0,57,86.32c3.87,3.87,10.22,3,10.22,3h98.61s3.19.17,8.07-4.71,4-8.75,4-8.75V46s.17-2.53-3.7-6.4a14.24,14.24,0,0,0-8.75-4H13s-4.38-.67-8.75,3.71-3.7,7.4-3.7,7.4V151S-.25,156.5,3.28,160a14.07,14.07,0,0,0,7.4,4H192.07c12.25,1,36,5.72,45.77,17.84s9.43,18.84,9.43,18.84v84.47S251,317.87,265.78,331s13.79,14.47,31.63,21.87,27.6,6.4,42.4,6.4,42.74-7.07,56.54-12.79,58.89-27.59,58.89-27.59"/></g></g></svg>